inDegrees=yes
name=ik_S48_A07_T02
DataType=double
version=3
OpenSimVersion=4.3-2021-08-27-4bc7ad9
endheader
time	pelvis_tilt	pelvis_list	pelvis_rotation	pelvis_tx	pelvis_ty	pelvis_tz	hip_flexion_r	hip_adduction_r	hip_rotation_r	knee_angle_r	knee_angle_r_beta	ankle_angle_r	subtalar_angle_r	mtp_angle_r	hip_flexion_l	hip_adduction_l	hip_rotation_l	knee_angle_l	knee_angle_l_beta	ankle_angle_l	subtalar_angle_l	mtp_angle_l	lumbar_extension	lumbar_bending	lumbar_rotation	arm_flex_r	arm_add_r	arm_rot_r	elbow_flex_r	pro_sup_r	wrist_flex_r	wrist_dev_r	arm_flex_l	arm_add_l	arm_rot_l	elbow_flex_l	pro_sup_l	wrist_flex_l	wrist_dev_l
0	0	0	0	0	0.9399999999999999	0	0	0	0	0	0	0	0	0	0	0	0	0	0	0	0	0	0	0	0	0	0	0	0	89.99999999963507	0	0	0	0	0	0	89.99999999869995	0	0
0.02	-8.249702132482446	-1.34207758249747	31.2139725679268	0	0.9399999999999999	0	3.077339308792625	-1.447096014175887	-1.036450095586729	4.749996069449271	0.08290307086867901	0	0	0	3.077339308792625	-1.447096014175887	-1.036450095586729	4.749996069449271	0.08290307086867901	0	0	0	-3.799183550959909	-4.445245834891967	5.911303997346654	29.76244243027053	-6.855554336362768	-5.53932030689548	56.16506262803365	139.6938177029985	0	0	34.47906391466113	-9.811974650263197	5.497878285060481	36.69445547336167	111.644263081223	0	0
0.04	-7.553790303574746	-1.29367263013446	30.15941445098132	0	0.9399999999999999	0	31.75489450288731	-14.43802788702311	-9.819466558252151	49.07271948147699	0.8564805278593379	0	0	0	31.75489450288731	-14.43802788702311	-9.819466558252151	49.07271948147699	0.8564805278593379	0	0	0	-4.377702706249391	-4.211534761948132	6.981979131457077	29.79898846643346	-6.831621293867147	-5.538655034702287	56.15491974367987	139.7146844158453	0	0	34.52055833454596	-9.822380808132197	5.502905472875192	36.68021412081378	111.6240483014195	0	0
0.06	-7.551961465610551	-1.295030791933744	30.15724559309928	0	0.9399999999999999	0	31.77480470726725	-14.41233108660684	-9.820097589679293	49.07839573709818	0.8565795972091126	0	0	0	31.77480470726725	-14.41233108660684	-9.820097589679293	49.07839573709818	0.8565795972091126	0	0	0	-4.379582662644591	-4.206868774120201	6.976307928933999	29.81520419465036	-6.836764111447106	-5.54089893101562	56.18133079595787	139.6538301970274	0	0	34.51377643175678	-9.817363626932289	5.491530419841956	36.71796645870519	111.6142908544643	0	0
0.08	-7.545541055223756	-1.284527025135958	30.15543510336203	0	0.9399999999999999	0	31.77468856650597	-14.41058744576015	-9.820119512503625	49.07828794142794	0.8565777158197474	0	0	0	31.77468856650597	-14.41058744576015	-9.820119512503625	49.07828794142794	0.8565777158197474	0	0	0	-4.368730705595666	-4.201035503599758	6.974334375013365	29.79493690637404	-6.837450571164515	-5.543265765054814	56.17194073815448	139.6718122869735	0	0	34.51309197497952	-9.830755582267301	5.469098249559188	36.69902212883764	111.6346077723533	0	0
0.1	-7.546765087077589	-1.275941550297088	30.13910008002189	0	0.9399999999999999	0	31.77271520854638	-14.41325101915201	-9.820056627832695	49.07777018796867	0.8565686793171697	0	0	0	31.77271520854638	-14.41325101915201	-9.820056627832695	49.07777018796867	0.8565686793171697	0	0	0	-4.365300239411846	-4.1934053326111	6.972968417055062	29.80000689227296	-6.808991598477713	-5.533890223058417	56.17056465060147	139.7168349219592	0	0	34.48759558150361	-9.812685034184328	5.472978509672902	36.66024993558847	111.6699249064483	0	0
0.12	-7.554665685340523	-1.279738355348431	30.12849557667419	0	0.9399999999999999	0	31.77873471083136	-14.4061508346319	-9.820240081701138	49.07956141885023	0.8565999421937162	0	0	0	31.77873471083136	-14.4061508346319	-9.820240081701138	49.07956141885023	0.8565999421937162	0	0	0	-4.375032262949238	-4.190220168601436	6.968867454816509	29.79826019004163	-6.789746026672446	-5.53501999073297	56.17757190855711	139.7367965582878	0	0	34.50720745642986	-9.813334037308907	5.475751067620194	36.65395109254899	111.6877691160995	0	0
0.14	-7.552234650524379	-1.266458688241614	30.12152254563694	0	0.9399999999999999	0	31.79224577872856	-14.39178366310932	-9.820628497940554	49.0836334353115	0.8566710122881608	0	0	0	31.79224577872856	-14.39178366310932	-9.820628497940554	49.0836334353115	0.8566710122881608	0	0	0	-4.36824181781031	-4.175407275373915	6.968000037151489	29.79727187916374	-6.798828641967686	-5.521310554287471	56.18729643426505	139.7467637103939	0	0	34.47749113954211	-9.793033681308854	5.505164094792591	36.6540022160675	111.7004121844046	0	0
